<svg xmlns="http://www.w3.org/2000/svg" version="1.1" xmlns:xlink="http://www.w3.org/1999/xlink" xmlns:svgjs="http://svgjs.dev/svgjs" width="1000" height="1148" viewBox="0 0 1000 1148"><g transform="matrix(1,0,0,1,0.19079952469860473,0.4647773279351668)"><svg viewBox="0 0 215 247" data-background-color="#ffffff" preserveAspectRatio="xMidYMid meet" height="1148" width="1000" xmlns="http://www.w3.org/2000/svg" xmlns:xlink="http://www.w3.org/1999/xlink"><g id="tight-bounds" transform="matrix(1,0,0,1,-0.041021897810196606,-0.09999999999999432)"><svg viewBox="0 0 215.08204379562042 247.2" height="247.2" width="215.08204379562042"><g><svg viewBox="0 0 215.08204379562042 247.2" height="247.2" width="215.08204379562042"><g><svg viewBox="0 0 215.08204379562042 247.2" height="247.2" width="215.08204379562042"><g id="textblocktransform"><svg viewBox="0 0 215.08204379562042 247.2" height="247.2" width="215.08204379562042" id="textblock"><g><svg viewBox="0 0 215.08204379562042 247.2" height="247.2" width="215.08204379562042"><g transform="matrix(1,0,0,1,0,0)"><svg width="215.08204379562042" viewBox="-0.10000000149011612 -33.45000076293945 29.100000381469727 33.45000076293945" height="247.2" data-palette-color="#ed3b43"><path d="M23.29-11.06L23.29-31.25 20.75-31.25 20.75-22.71 10.6-22.71 10.6-31.25 8.01-31.25 8.01-11.06 10.6-11.06 10.6-20.14 20.75-20.14 20.75-11.06 23.29-11.06ZM10.69-33.45L18.21-33.45Q20.68-33.45 22.68-32.71 24.68-31.98 26.09-30.71 27.49-29.44 28.25-27.75 29-26.05 29-24.15L29-24.15 29-9.3Q29-7.4 28.25-5.7 27.49-4 26.09-2.73 24.68-1.46 22.68-0.73 20.68 0 18.21 0L18.21 0 10.69 0Q8.23 0 6.23-0.73 4.22-1.46 2.82-2.73 1.42-4 0.66-5.7-0.1-7.4-0.1-9.3L-0.1-9.3-0.1-24.15Q-0.1-26.05 0.66-27.75 1.42-29.44 2.82-30.71 4.22-31.98 6.23-32.71 8.23-33.45 10.69-33.45L10.69-33.45Z" opacity="1" transform="matrix(1,0,0,1,0,0)" fill="#ed3b43" class="undefined-text-0" data-fill-palette-color="primary" id="text-0"></path></svg></g></svg></g></svg></g></svg></g><g></g></svg></g><defs></defs></svg><rect width="215.08204379562042" height="247.2" fill="none" stroke="none" visibility="hidden"></rect></g></svg></g></svg>